<svg width="677" height="736" viewBox="0 0 677 736" fill="none" xmlns="http://www.w3.org/2000/svg">
<path d="M85.8133 68.7933C87.7543 34.457 95.9563 19.5257 119.477 7.53534C144.786 -5.37003 184.702 0.635742 231.671 24.4203C251.902 34.6697 253.962 34.8783 289.417 30.3327C336.543 24.2883 397.213 24.3097 440.71 30.388C473.603 34.9847 475.763 34.755 496.043 24.4843C562.713 -9.27736 615.35 -7.06832 634.41 30.29C643.923 48.9373 645.69 97.3237 638.313 137.232C634.223 159.356 634.657 162.119 644.51 176.637C713.833 278.795 663.883 444.387 545.093 506.183C536.003 510.913 528.343 513.84 522.1 516.223C502.93 523.543 497.11 525.767 504.157 559.46C507.55 575.667 511.637 615.96 513.243 649.007C516.147 708.74 516.103 709.157 505.627 721.343C491.367 737.92 470.813 738.2 456.887 722.007C447.803 711.447 446.917 706.46 446.917 665.717C446.917 605.507 440.317 565.487 424.723 531.193C406.18 490.383 419.927 475.167 462.333 466.047C521.277 453.367 567.313 416.99 592.973 362.82C617.37 311.327 621.047 240.167 576.94 196.889C564.397 181.983 563.523 168.482 572.48 127.77C575.827 112.553 578.633 92.9227 578.717 84.1417C578.843 70.2743 577.58 68.1803 569.063 68.1803C563.673 68.1803 543.08 76.0207 523.307 85.6017L491.747 100.898C488.877 102.289 485.667 102.823 482.5 102.46C402.25 93.2487 325.997 93.1063 245.354 102.496C242.175 102.866 238.951 102.331 236.072 100.934L204.528 85.6273C184.753 76.029 164.161 68.1803 158.772 68.1803C146.314 68.1803 146.126 77.3783 157.482 132.026C164.419 165.401 169.087 172.838 149.034 199.524C118.975 239.525 111.467 289.197 127.586 341.387C147.901 407.153 197.65 451.583 267.591 466.407C309.753 475.343 320.773 487.003 304.673 535.35C292 573.397 283.987 583.203 265.569 583.203C240.788 583.203 225.265 561.737 233.808 539.273C237.571 529.373 236.451 528.317 213.237 519.85C142.372 494.013 88.1713 436.103 63.3907 359.743C44.237 300.728 52.6647 223.913 83.3917 177.484C93.8537 161.676 94.0157 160.335 89.1333 130.072C86.371 112.941 84.877 85.3677 85.8133 68.7933Z" fill="#6c3f99"/>
<path d="M61.0677 500.513C50.8561 485.197 30.1604 481.057 14.8427 491.27C-0.474608 501.48 -4.61394 522.177 5.59773 537.493C13.1367 548.803 22.1557 558.093 29.8147 565.75C31.2267 567.163 32.5987 568.527 33.9384 569.857C40.3541 576.23 46.0187 581.857 51.7081 588.537C64.2917 603.307 76.8454 623.2 83.9801 658.873C87.1581 674.763 98.5797 683.323 104.908 687.063C111.772 691.117 119.271 693.507 125.442 695.063C138.065 698.247 153.39 699.9 167.933 700.863C183.898 701.923 201.197 702.267 216.666 702.36C216.678 720.757 231.597 735.67 249.999 735.67C268.409 735.67 283.333 720.747 283.333 702.337V669.003C283.333 650.593 268.409 635.67 249.999 635.67C246.857 635.67 243.457 635.68 239.856 635.693C220.294 635.753 194.796 635.83 172.339 634.343C161.51 633.627 152.608 632.61 146.08 631.367C136.028 591.903 119.787 565.647 102.458 545.303C94.7971 536.313 86.8644 528.447 80.4121 522.047C79.2041 520.85 78.0481 519.703 76.9551 518.61C69.5101 511.167 64.6401 505.873 61.0677 500.513Z" fill="#6c3f99"/>
</svg>
