<svg width="500" height="500" viewBox="0 0 500 500" fill="none" xmlns="http://www.w3.org/2000/svg">
<g clip-path="url(#clip0_60_2)">
<path d="M287.21 101.09C283.61 100.26 276.97 103.21 274.28 104.51C273.95 103.76 273.55 103.01 273.09 102.24C273.06 100.99 272.87 96.99 271.68 92.77C273.51 92.32 276.03 91.53 279.14 90.15C280.96 89.34 283.36 88.03 283.17 86.02C282.97 83.89 279.93 83.02 278.95 82.79C278.49 82.66 274.59 81.58 269.27 81.19C271.27 70.48 267.2 64.81 267.02 64.56C266.73 64.16 266.25 64 265.81 64.09C265.42 64.01 265.01 64.12 264.7 64.42L257.07 71.97C254.86 70.77 252.51 70.12 250.07 70.04C247.91 69.98 245.72 70.1 243.57 70.39C243.62 70.24 243.64 70.09 243.61 69.95C243.49 69.26 242.49 68.86 241.38 69.07C240.27 69.28 239.47 70.01 239.6 70.7C239.62 70.84 239.69 70.97 239.79 71.09C239.53 71.15 239.27 71.22 239.01 71.29C236.86 69.13 236 68.56 235.54 68.32C235.08 68.08 234.7 67.88 234.41 67.71C232.82 66.83 232 66.74 230.99 68.48C230.83 68.75 230.64 69.09 230.36 69.5C229.49 70.81 229.03 74.16 228.83 76.02C226.16 78.07 224.38 80.49 223.53 83.2C220.35 93.33 221.73 95.95 223.04 97.04C223.67 97.56 224.39 97.76 225.12 97.76C225.17 97.76 225.21 97.76 225.26 97.76C225.35 98.9 225.38 100 225.35 101.05C222.98 101.35 221.28 102.02 220.29 103.06C218.85 103.58 217.07 105.09 216.03 109.14C215.97 109.38 215.92 109.63 215.89 109.88C211.76 112.09 211.81 114.74 212.23 116.16C213.38 120.01 215.36 121.07 217.87 122.42C218.36 122.68 218.86 122.95 219.4 123.26C220.2 123.72 221.25 123.88 222.16 124.02C222.56 124.08 222.93 124.14 223.22 124.21C226.11 124.94 228.95 125.74 231.67 126.61L232.54 126.89C235.95 127.97 239.47 129.09 242.73 130.61C244.89 131.61 246.91 132.9 248.74 134.42C249.36 134.94 249.94 135.59 250.56 136.28C251.78 137.65 253.05 139.07 254.91 139.77C255.33 139.93 255.72 140.01 256.09 140.01C256.25 140.01 256.4 139.99 256.55 139.97C257.9 139.72 258.39 138.85 258.56 138.36C259.27 136.31 257.08 133.28 256.15 132.12L261.18 125.34C262.88 125.04 267.93 123.73 270.96 118.34C271.88 117.76 274.32 115.94 275.22 112.61C278.05 113.32 282.47 116.12 284.13 117.29C284.28 117.39 284.45 117.44 284.62 117.44C284.9 117.44 285.17 117.3 285.33 117.05C285.6 116.64 285.5 116.09 285.1 115.82C284.84 115.63 279.31 111.79 275.51 110.86C275.54 110.46 275.55 110.06 275.54 109.65C278.3 109.4 283.12 110.56 284.96 111.1C285.04 111.12 285.12 111.13 285.2 111.13C285.58 111.13 285.92 110.88 286.03 110.49C286.16 110.02 285.9 109.53 285.44 109.39C284.72 109.18 278.97 107.54 275.35 107.89C275.24 107.33 275.1 106.76 274.91 106.19C277.97 104.69 283.96 102.19 286.82 102.85C287.28 102.96 287.75 102.66 287.85 102.18C287.95 101.7 287.66 101.23 287.19 101.12L287.21 101.09Z" fill="#E8E4EA"/>
<path d="M247.84 84.87C245.05 81.6 240.89 76.81 237.81 73.65C237.79 73.63 237.78 73.62 237.76 73.6C235.48 71.26 234.67 70.72 234.43 70.6C233.93 70.34 233.54 70.13 233.23 69.95C233.18 69.92 233.12 69.89 233.07 69.86C232.91 70.14 232.7 70.5 232.4 70.94C232.12 71.35 231.56 73.32 231.24 76.84C230.79 81.59 230.91 88.07 232.54 91.79C236.77 89.67 242.44 86.99 247.85 84.87H247.84ZM233.39 72.39C233.71 71.52 234.45 71.84 234.45 71.84L235.84 73.61L242.34 81.92C243.34 83.19 242.77 85.1 241.25 85.59L238.41 86.51C237.13 86.92 235.79 86.12 235.51 84.78C234.67 80.71 233.15 73.03 233.38 72.39H233.39Z" fill="#E8E4EA"/>
<path d="M263.16 77.12C263.87 74.31 264.92 70.2 265.13 69.86C265.44 69.35 265.62 69.65 265.62 69.65L265.91 77.13C265.94 78.01 265.38 79.07 264.79 79.3C265.18 79.87 265.55 80.46 265.9 81.05C266.19 81.05 266.48 81.05 266.78 81.06C268.23 73.71 266.54 68.97 265.6 67.05L259.23 73.35C260.62 74.38 261.94 75.64 263.16 77.12Z" fill="#E8E4EA"/>
<path d="M270.63 102.61C270.63 102.55 270.62 100.36 270.16 97.48L268.31 96.93L268.72 98.73C268.88 99.41 268.47 100.09 267.8 100.25C267.7 100.27 267.61 100.29 267.51 100.29C266.95 100.29 266.44 99.9 266.31 99.31L265.97 97.84L265.27 98.68C265.03 98.98 264.68 99.13 264.33 99.13C264.05 99.13 263.77 99.03 263.53 98.83C263.01 98.38 262.94 97.58 263.38 97.04L265.66 94.28C265.66 94.28 265.67 94.27 265.68 94.26C265.7 94.24 265.72 94.22 265.74 94.2C265.77 94.17 265.8 94.14 265.84 94.11C265.86 94.09 265.88 94.07 265.91 94.06C265.96 94.02 266.01 93.99 266.07 93.97C266.09 93.97 266.1 93.95 266.12 93.95C266.18 93.92 266.24 93.9 266.3 93.88C266.31 93.88 266.32 93.88 266.33 93.87C266.34 93.87 266.35 93.87 266.37 93.87C266.42 93.86 266.48 93.85 266.54 93.85C266.56 93.85 266.58 93.85 266.6 93.85C266.67 93.85 266.74 93.85 266.81 93.87C266.83 93.87 266.86 93.88 266.88 93.89C266.91 93.89 266.94 93.9 266.97 93.91L269.62 94.69C269.43 93.91 269.21 93.12 268.95 92.33C268.95 92.3 268.93 92.27 268.92 92.24C267.67 88.51 265.51 84.94 261.78 83.78C260.16 83.93 258.58 84.18 257.1 84.52C255.24 84.95 252.98 85.66 250.38 86.63C244.13 88.95 237.24 92.25 232.56 94.62C230.22 95.81 229.26 96.32 229.13 96.39C228.82 96.58 228.31 96.87 227.7 97.14C227.86 98.95 227.89 100.69 227.77 102.31C227.52 105.82 226.64 108.34 225.8 110.01C230.4 114.11 237.17 118.71 237.82 119.14C239.07 119.8 240.37 120.54 241.91 121.44C245.86 123.75 248.81 125.69 251.47 127.7C252.63 128.58 253.61 129.41 254.46 130.24L259.55 123.38C259.76 123.1 260.08 122.92 260.43 122.89C260.66 122.87 266.08 122.3 268.99 116.81C269.11 116.59 269.29 116.41 269.51 116.29C269.53 116.27 272.11 114.86 272.89 111.86C273.53 109.41 272.84 106.53 270.84 103.31C270.71 103.11 270.65 102.87 270.65 102.63L270.63 102.61ZM237.24 105.83C236.76 105.87 236.35 105.5 236.32 105.01C236.29 104.52 236.65 104.1 237.12 104.06C242.92 103.65 254.4 106.73 254.89 106.86C255.35 106.98 255.63 107.47 255.51 107.94C255.41 108.34 255.06 108.6 254.67 108.6C254.6 108.6 254.52 108.6 254.45 108.57C254.33 108.54 242.76 105.43 237.24 105.83ZM241.27 115.13C241.11 115.25 240.93 115.3 240.75 115.3C240.49 115.3 240.22 115.18 240.05 114.94C239.77 114.55 239.85 113.99 240.23 113.7C243.89 110.91 254.17 110.26 254.61 110.24C255.08 110.21 255.5 110.58 255.52 111.07C255.55 111.56 255.18 111.98 254.71 112.01C254.61 112.01 244.51 112.65 241.26 115.13H241.27ZM255.09 115.6C253.4 116.11 248.69 117.92 247.24 120.14C247.07 120.4 246.8 120.54 246.52 120.54C246.35 120.54 246.19 120.49 246.04 120.39C245.64 120.12 245.54 119.57 245.8 119.16C247.89 115.95 254.33 113.99 254.6 113.9C255.06 113.76 255.54 114.03 255.67 114.5C255.8 114.97 255.54 115.46 255.08 115.6H255.09ZM259.34 98.46C259.02 99.08 258.27 99.32 257.67 98.99L254.95 97.52L255.19 100.43C255.25 101.13 254.74 101.74 254.06 101.8C254.03 101.8 253.99 101.8 253.96 101.8C253.32 101.8 252.78 101.3 252.73 100.64L252.47 97.49L248.37 100.1C248.17 100.23 247.94 100.29 247.72 100.29C247.31 100.29 246.9 100.08 246.67 99.69C246.31 99.09 246.49 98.31 247.07 97.94L252.89 94.24C252.89 94.24 252.92 94.22 252.94 94.21C252.96 94.2 252.97 94.19 252.99 94.18C253.05 94.15 253.12 94.12 253.19 94.1C253.19 94.1 253.2 94.1 253.21 94.1C253.28 94.08 253.34 94.07 253.41 94.06C253.41 94.06 253.43 94.06 253.44 94.06C253.44 94.06 253.45 94.06 253.46 94.06C253.53 94.06 253.6 94.06 253.68 94.06C253.7 94.06 253.71 94.06 253.72 94.06C253.78 94.06 253.84 94.08 253.89 94.1C253.91 94.1 253.92 94.1 253.94 94.12C254 94.14 254.06 94.17 254.11 94.2L258.83 96.75C259.43 97.08 259.67 97.84 259.35 98.46H259.34ZM269.3 107.66C268.97 110.44 270.53 111.17 270.62 111.21C271.06 111.39 271.27 111.9 271.1 112.35C270.93 112.81 270.43 113.03 269.98 112.86C269.89 112.82 268.41 112.21 267.79 110.27C267.68 110.57 267.54 110.86 267.36 111.13C266.17 112.96 263.89 113.26 263.8 113.27C263.76 113.27 263.73 113.27 263.69 113.27C263.26 113.27 262.89 112.94 262.83 112.49C262.77 112 263.11 111.56 263.58 111.5C263.6 111.5 265.17 111.27 265.91 110.13C266.31 109.51 266.41 108.7 266.21 107.71C263.9 106.58 264.05 105.82 264.13 105.45C264.33 104.45 265.56 104.44 266.11 104.44L268.8 104.31C268.8 104.31 268.83 104.31 268.85 104.31C269.35 104.31 270.68 104.31 270.94 105.35C271.01 105.63 271.22 106.46 269.31 107.64L269.3 107.66Z" fill="#E8E4EA"/>
<path d="M255.39 82.31C254.41 81.8 253.73 80.75 253.73 79.55C253.73 77.84 255.09 76.45 256.75 76.45C258.41 76.45 259.78 77.84 259.78 79.55C259.78 80.3 259.52 81 259.08 81.53C259.97 81.39 260.87 81.28 261.79 81.21H261.81C262.21 81.18 262.61 81.15 263.01 81.13C262.83 80.85 262.64 80.57 262.45 80.3C262.28 80.06 262.09 79.8 261.88 79.52C260.28 77.44 258.51 75.79 256.63 74.63C254.54 73.34 252.31 72.65 250 72.58C247.01 72.49 243.96 72.78 241.04 73.41C244.19 76.77 247.93 81.12 250.32 83.93C252.19 83.26 253.88 82.71 255.38 82.31H255.39Z" fill="#FF9933"/>
<path d="M227.94 94.13C227.94 94.13 228.61 93.76 230.31 92.89C228.79 89.46 228.39 84.27 228.57 79.59C227.28 80.93 226.37 82.4 225.88 83.97C222.94 93.35 224.41 94.91 224.59 95.06C224.95 95.35 226 95.27 227.9 94.15C227.9 94.15 227.92 94.14 227.93 94.13H227.94Z" fill="#FF9933"/>
<path d="M249.98 129.72C247.4 127.76 244.52 125.88 240.66 123.62C239.13 122.72 237.84 122 236.6 121.34C236.56 121.32 236.53 121.3 236.49 121.28C236.16 121.06 228.29 115.77 223.37 111.2C223.37 111.2 223.36 111.19 223.35 111.18C221.4 109.36 220.19 107.94 219.65 106.75C219.16 107.5 218.74 108.52 218.41 109.79C218.33 110.1 218.29 110.4 218.29 110.71C218.27 114.91 225.86 118.22 228.79 119.15C229.44 119.36 229.81 120.07 229.61 120.73C229.45 121.28 228.96 121.63 228.43 121.63C228.31 121.63 228.19 121.61 228.07 121.57C227.95 121.53 225.06 120.61 222.12 118.91C218.86 117.01 216.86 114.92 216.13 112.67C215.06 113.4 214.26 114.34 214.58 115.43C215.43 118.27 216.62 118.91 219 120.18C219.48 120.43 220.02 120.73 220.59 121.05C221 121.29 221.81 121.41 222.52 121.52C222.97 121.59 223.4 121.66 223.8 121.76C226.74 122.5 229.63 123.32 232.39 124.2L233.26 124.48C236.74 125.59 240.33 126.73 243.74 128.31C246.09 129.4 248.3 130.8 250.29 132.46C251.06 133.1 251.73 133.85 252.38 134.58C253.45 135.78 254.46 136.91 255.74 137.39C256 137.49 256.09 137.47 256.09 137.47C256.15 137.46 256.19 137.45 256.22 137.44C256.26 136.86 255.38 135.11 254.09 133.55C253.05 132.29 251.73 131.08 249.96 129.73L249.98 129.72Z" fill="#6C3F99"/>
<path d="M287.21 101.09C283.61 100.26 276.97 103.21 274.28 104.51C273.95 103.76 273.55 103.01 273.09 102.24C273.06 100.99 272.87 96.99 271.68 92.77C273.51 92.32 276.03 91.53 279.14 90.15C280.96 89.34 283.36 88.03 283.17 86.02C282.97 83.89 279.93 83.02 278.95 82.79C278.49 82.66 274.59 81.58 269.27 81.19C271.27 70.48 267.2 64.81 267.02 64.56C266.73 64.16 266.25 64 265.81 64.09C265.42 64.01 265.01 64.12 264.7 64.42L257.07 71.97C254.86 70.77 252.51 70.12 250.07 70.04C247.91 69.98 245.72 70.1 243.57 70.4C243.62 70.25 243.64 70.1 243.61 69.96C243.49 69.27 242.49 68.87 241.38 69.08C240.27 69.29 239.47 70.02 239.6 70.71C239.62 70.85 239.69 70.98 239.79 71.1C239.53 71.16 239.27 71.23 239.01 71.3C236.86 69.14 236 68.57 235.54 68.33C235.08 68.09 234.7 67.89 234.41 67.72C232.82 66.84 232 66.75 230.99 68.49C230.83 68.76 230.64 69.1 230.36 69.51C229.49 70.82 229.03 74.17 228.83 76.03C226.16 78.08 224.38 80.5 223.53 83.21C220.35 93.34 221.73 95.96 223.04 97.05C223.67 97.57 224.39 97.77 225.12 97.77C225.17 97.77 225.21 97.77 225.26 97.77C225.35 98.91 225.38 100.01 225.35 101.06C222.98 101.36 221.28 102.03 220.29 103.07C218.85 103.59 217.07 105.1 216.03 109.15C215.97 109.39 215.92 109.64 215.89 109.89C211.76 112.1 211.81 114.75 212.23 116.17C213.38 120.02 215.36 121.08 217.87 122.43C218.36 122.69 218.86 122.96 219.4 123.27C220.2 123.73 221.25 123.89 222.17 124.03C222.57 124.09 222.94 124.15 223.23 124.22C226.12 124.95 228.96 125.75 231.68 126.62L232.55 126.9C235.96 127.98 239.48 129.1 242.74 130.62C244.9 131.62 246.92 132.9 248.75 134.43C249.37 134.95 249.95 135.6 250.57 136.29C251.79 137.66 253.06 139.08 254.92 139.78C255.34 139.94 255.73 140.02 256.1 140.02C256.26 140.02 256.41 140 256.56 139.98C257.91 139.73 258.4 138.86 258.57 138.37C259.28 136.32 257.09 133.29 256.16 132.13L261.19 125.35C262.89 125.05 267.94 123.74 270.97 118.35C271.89 117.77 274.33 115.95 275.23 112.62C278.06 113.33 282.48 116.13 284.14 117.3C284.29 117.4 284.46 117.45 284.63 117.45C284.91 117.45 285.18 117.31 285.34 117.06C285.61 116.65 285.51 116.1 285.11 115.83C284.85 115.64 279.32 111.8 275.52 110.87C275.55 110.47 275.56 110.07 275.55 109.66C278.32 109.41 283.13 110.57 284.97 111.11C285.05 111.13 285.13 111.14 285.21 111.14C285.59 111.14 285.93 110.89 286.04 110.5C286.17 110.03 285.91 109.54 285.45 109.4C284.73 109.19 278.98 107.55 275.36 107.9C275.25 107.34 275.11 106.77 274.92 106.2C277.98 104.7 283.97 102.2 286.83 102.86C287.29 102.97 287.76 102.67 287.86 102.19C287.96 101.71 287.67 101.24 287.2 101.13L287.21 101.09ZM265.59 67.05C266.53 68.97 268.23 73.71 266.77 81.06C266.48 81.06 266.19 81.05 265.89 81.05C265.54 80.45 265.17 79.87 264.78 79.3C265.37 79.07 265.93 78.02 265.9 77.13L265.61 69.65C265.61 69.65 265.44 69.35 265.12 69.86C264.91 70.2 263.86 74.31 263.15 77.12C261.92 75.64 260.6 74.38 259.22 73.35L265.59 67.05ZM249.99 72.57C252.3 72.64 254.53 73.33 256.62 74.62C258.5 75.78 260.27 77.43 261.87 79.51C262.09 79.79 262.28 80.05 262.44 80.29C262.63 80.56 262.82 80.84 263 81.12C262.6 81.14 262.2 81.17 261.8 81.2H261.78C260.86 81.28 259.95 81.39 259.07 81.52C259.51 80.98 259.77 80.29 259.77 79.54C259.77 77.83 258.41 76.44 256.74 76.44C255.07 76.44 253.72 77.83 253.72 79.54C253.72 80.74 254.4 81.79 255.38 82.3C253.88 82.7 252.18 83.24 250.32 83.92C247.93 81.11 244.18 76.76 241.04 73.4C243.95 72.77 247.01 72.47 250 72.57H249.99ZM231.23 76.83C231.56 73.31 232.12 71.34 232.39 70.93C232.68 70.49 232.89 70.13 233.06 69.85C233.11 69.88 233.17 69.91 233.22 69.94C233.53 70.11 233.92 70.33 234.42 70.59C234.66 70.71 235.47 71.25 237.75 73.59C237.77 73.61 237.78 73.62 237.8 73.64C240.88 76.8 245.04 81.6 247.83 84.86C242.42 86.97 236.75 89.66 232.52 91.78C230.89 88.07 230.78 81.58 231.22 76.83H231.23ZM224.59 95.06C224.41 94.91 222.94 93.35 225.88 83.97C226.37 82.4 227.27 80.93 228.57 79.59C228.39 84.28 228.79 89.46 230.31 92.89C228.61 93.76 227.97 94.11 227.94 94.13C227.93 94.13 227.92 94.14 227.91 94.15C226.01 95.27 224.95 95.35 224.6 95.06H224.59ZM256.25 137.42C256.25 137.42 256.18 137.44 256.12 137.45C256.12 137.45 256.03 137.47 255.77 137.37C254.49 136.89 253.48 135.76 252.41 134.56C251.76 133.83 251.09 133.08 250.32 132.44C248.32 130.78 246.12 129.39 243.77 128.29C240.36 126.71 236.77 125.56 233.29 124.46L232.42 124.18C229.65 123.3 226.76 122.48 223.83 121.74C223.43 121.64 223 121.58 222.55 121.5C221.84 121.39 221.03 121.27 220.62 121.03C220.05 120.7 219.5 120.41 219.03 120.16C216.65 118.88 215.45 118.24 214.61 115.41C214.28 114.32 215.09 113.38 216.16 112.65C216.88 114.9 218.89 117 222.15 118.89C225.08 120.59 227.97 121.51 228.1 121.55C228.22 121.59 228.34 121.61 228.46 121.61C228.99 121.61 229.48 121.26 229.64 120.71C229.84 120.04 229.47 119.33 228.82 119.13C225.89 118.2 218.3 114.89 218.32 110.69C218.32 110.39 218.36 110.08 218.44 109.77C218.77 108.5 219.19 107.47 219.68 106.73C220.23 107.92 221.43 109.34 223.38 111.16C223.38 111.16 223.39 111.17 223.4 111.18C228.31 115.75 236.19 121.04 236.52 121.26C236.55 121.28 236.59 121.3 236.63 121.32C237.86 121.98 239.15 122.7 240.69 123.6C244.56 125.86 247.43 127.74 250.01 129.7C251.79 131.05 253.1 132.26 254.14 133.52C255.43 135.08 256.31 136.83 256.27 137.41L256.25 137.42ZM272.87 111.84C272.09 114.84 269.52 116.25 269.49 116.27C269.27 116.39 269.09 116.57 268.97 116.79C266.06 122.28 260.64 122.85 260.41 122.87C260.07 122.9 259.74 123.08 259.53 123.36L254.44 130.22C253.59 129.39 252.61 128.56 251.45 127.68C248.79 125.66 245.84 123.73 241.89 121.42C240.35 120.52 239.05 119.79 237.8 119.12C237.15 118.68 230.37 114.08 225.78 109.99C226.62 108.32 227.5 105.8 227.75 102.29C227.87 100.67 227.84 98.93 227.68 97.12C228.29 96.85 228.8 96.55 229.11 96.37C229.24 96.3 230.2 95.79 232.54 94.6C237.22 92.24 244.1 88.93 250.36 86.61C252.96 85.64 255.22 84.93 257.08 84.5C258.57 84.15 260.14 83.91 261.76 83.76C265.49 84.92 267.65 88.49 268.9 92.22C268.9 92.25 268.92 92.28 268.93 92.31C269.19 93.1 269.41 93.89 269.6 94.67L266.95 93.89C266.95 93.89 266.89 93.88 266.86 93.87C266.84 93.87 266.81 93.86 266.79 93.85C266.72 93.84 266.65 93.83 266.58 93.83C266.56 93.83 266.54 93.83 266.52 93.83C266.46 93.83 266.41 93.84 266.35 93.85C266.34 93.85 266.33 93.85 266.31 93.85C266.3 93.85 266.29 93.85 266.28 93.86C266.22 93.88 266.16 93.9 266.1 93.93C266.08 93.93 266.07 93.95 266.05 93.95C266 93.98 265.94 94.01 265.89 94.04C265.87 94.06 265.85 94.08 265.82 94.09C265.79 94.12 265.75 94.15 265.72 94.18C265.7 94.2 265.68 94.22 265.66 94.24C265.66 94.24 265.65 94.25 265.64 94.26L263.36 97.02C262.92 97.56 262.98 98.35 263.51 98.81C263.74 99.01 264.02 99.11 264.31 99.11C264.66 99.11 265.01 98.96 265.25 98.66L265.95 97.82L266.29 99.29C266.42 99.87 266.93 100.27 267.49 100.27C267.58 100.27 267.68 100.26 267.78 100.23C268.44 100.07 268.86 99.39 268.7 98.71L268.29 96.91L270.14 97.46C270.59 100.34 270.61 102.53 270.61 102.59C270.61 102.83 270.68 103.07 270.8 103.27C272.8 106.49 273.49 109.37 272.85 111.82L272.87 111.84Z" fill="#0F0C11"/>
<path d="M238.41 86.52L241.25 85.6C242.77 85.11 243.33 83.21 242.34 81.93L235.84 73.62L234.45 71.85C234.45 71.85 233.71 71.53 233.39 72.4C233.16 73.04 234.68 80.72 235.52 84.79C235.8 86.13 237.14 86.94 238.42 86.52H238.41Z" fill="#0F0C11"/>
<path d="M254.67 108.6C255.05 108.6 255.4 108.34 255.51 107.94C255.63 107.47 255.36 106.98 254.89 106.86C254.4 106.73 242.92 103.65 237.12 104.06C236.64 104.09 236.28 104.52 236.32 105.01C236.35 105.5 236.76 105.87 237.24 105.83C242.76 105.44 254.33 108.54 254.45 108.57C254.52 108.59 254.6 108.6 254.67 108.6Z" fill="#0F0C11"/>
<path d="M255.53 111.08C255.5 110.59 255.09 110.22 254.62 110.25C254.18 110.28 243.91 110.92 240.24 113.71C239.86 114 239.78 114.56 240.06 114.95C240.23 115.18 240.49 115.31 240.76 115.31C240.94 115.31 241.12 115.25 241.28 115.14C244.53 112.67 254.63 112.03 254.73 112.02C255.21 111.99 255.57 111.57 255.54 111.08H255.53Z" fill="#0F0C11"/>
<path d="M254.6 113.9C254.33 113.98 247.89 115.94 245.8 119.16C245.53 119.57 245.64 120.12 246.04 120.39C246.19 120.49 246.35 120.54 246.52 120.54C246.8 120.54 247.07 120.4 247.24 120.14C248.69 117.92 253.4 116.11 255.09 115.6C255.55 115.46 255.81 114.97 255.68 114.5C255.55 114.03 255.06 113.76 254.61 113.9H254.6Z" fill="#0F0C11"/>
<path d="M258.82 96.75L254.1 94.2C254.04 94.17 253.98 94.15 253.93 94.12C253.91 94.12 253.9 94.11 253.88 94.1C253.82 94.08 253.77 94.07 253.71 94.06C253.7 94.06 253.68 94.06 253.67 94.06C253.6 94.06 253.53 94.06 253.45 94.06C253.45 94.06 253.44 94.06 253.43 94.06C253.43 94.06 253.41 94.06 253.4 94.06C253.33 94.06 253.26 94.08 253.2 94.1C253.2 94.1 253.19 94.1 253.18 94.1C253.11 94.12 253.05 94.15 252.98 94.18C252.96 94.18 252.94 94.2 252.93 94.21C252.91 94.21 252.9 94.23 252.88 94.24L247.06 97.94C246.48 98.31 246.3 99.09 246.66 99.69C246.89 100.08 247.3 100.29 247.71 100.29C247.93 100.29 248.16 100.23 248.36 100.1L252.46 97.49L252.72 100.64C252.77 101.3 253.31 101.8 253.95 101.8C253.98 101.8 254.02 101.8 254.05 101.8C254.73 101.74 255.24 101.13 255.18 100.43L254.94 97.52L257.66 98.99C258.26 99.32 259.01 99.08 259.33 98.46C259.65 97.84 259.42 97.07 258.81 96.75H258.82Z" fill="#0F0C11"/>
<path d="M268.84 104.32C268.84 104.32 268.81 104.32 268.79 104.32L266.1 104.45C265.55 104.45 264.32 104.47 264.12 105.46C264.04 105.83 263.89 106.59 266.2 107.72C266.41 108.71 266.31 109.52 265.9 110.14C265.16 111.28 263.58 111.51 263.57 111.51C263.1 111.57 262.76 112.01 262.82 112.5C262.87 112.95 263.25 113.28 263.68 113.28C263.72 113.28 263.75 113.28 263.79 113.28C263.89 113.27 266.16 112.96 267.35 111.14C267.53 110.87 267.67 110.58 267.78 110.28C268.4 112.22 269.88 112.83 269.97 112.87C270.42 113.05 270.92 112.82 271.09 112.36C271.26 111.91 271.04 111.4 270.61 111.22C270.52 111.18 268.97 110.44 269.29 107.67C271.2 106.49 270.99 105.66 270.92 105.38C270.66 104.34 269.33 104.34 268.83 104.34L268.84 104.32Z" fill="#0F0C11"/>
<path d="M8.08002 314.04L2.27002 285.86L8.87002 284.5L12.97 304.37L20.74 302.77L16.92 284.26L23.57 282.89L27.39 301.4L40.54 298.68L42.25 306.99L8.08002 314.05V314.04Z" fill="#0F0C11"/>
<path d="M1.13 271.4L35.84 267.94L36.68 276.38L1.97 279.84L1.13 271.4Z" fill="#0F0C11"/>
<path d="M34.88 262.64L0 261.88L0.22 251.86C15.4 242.37 20.93 238.57 25.09 236.47V236.37C21.42 236.64 14.93 236.45 9.18 236.32L0.56 236.13L0.73 228.34L35.61 229.1L35.4 238.52C30.13 241.68 12.54 252.51 8.53 254.51V254.61C12.8 254.41 17.8 254.52 23.99 254.65L35.04 254.89L34.87 262.63L34.88 262.64Z" fill="#0F0C11"/>
<path d="M1.98999 217.36L5.05999 201.89C7.34999 190.36 16.09 185.52 25.13 187.31C36.07 189.48 41.23 198.85 39.26 208.83L36.22 224.16L1.99999 217.36H1.98999ZM31.44 214.56L32.61 208.67C33.94 201.96 30.86 197.6 23.57 196.15C17.25 194.89 12.66 197.42 11.19 204.31L9.99999 210.3L31.44 214.56Z" fill="#0F0C11"/>
<path d="M13.92 168.93L47.09 179.77L44.46 187.83L11.29 176.99L13.92 168.93Z" fill="#0F0C11"/>
<path d="M48.33 174.55L16.75 159.71L21 150.64C38.72 148.12 45.32 146.89 49.97 146.66L50.01 146.57C46.54 145.32 40.69 142.52 35.48 140.07L27.67 136.4L30.98 129.35L62.56 144.19L58.56 152.72C52.46 153.47 32 156.24 27.52 156.44L27.48 156.53C31.46 158.07 36 160.2 41.6 162.84L51.6 167.54L48.31 174.55H48.33Z" fill="#0F0C11"/>
<path d="M84.94 111.94L81.38 116.95C80.66 116.68 79.22 115.96 78.13 115.37C79.01 118.67 78.63 122.12 74.84 127.45C68.29 136.67 58.3 137.29 49.98 131.37C41.66 125.45 38.87 115.25 46.11 105.06C52.6 95.92 60.35 95.54 65.02 97.7L60.08 104.65C58.22 104.18 54.62 104.11 51.32 108.76C47.16 114.62 49.53 120.09 54.83 123.85C60.4 127.82 66.43 128.15 70.57 122.33C73.99 117.52 73.03 113.55 69.64 111.14L69.2 110.82L64.29 117.73L58.96 113.94L68.64 100.32L84.96 111.93L84.94 111.94Z" fill="#0F0C11"/>
<path d="M71.5601 75.18L85.9001 62.21C92.0801 56.63 97.4901 57.22 100.77 60.86C103.49 63.88 103.25 67.31 101.89 69.87C105.09 68.38 109.17 68.24 112.12 71.52C116.54 76.42 115.38 82.61 109.02 88.36L94.9401 101.09L71.5601 75.18ZM93.7101 73.53C96.5101 71 96.4301 69.07 95.0001 67.48C93.2401 65.53 91.0401 66.12 88.8701 68.08L81.9901 74.3L86.8701 79.71L93.7101 73.53ZM96.9001 90.83L104 84.41C106.43 82.22 107.63 79.85 105.31 77.28C103.45 75.22 101.09 75.41 98.3301 77.91L91.1201 84.43L96.9001 90.84V90.83Z" fill="#0F0C11"/>
<path d="M136.85 50.2L120.53 60.84L124.86 67.49L143.01 55.66L145.89 61.9L121.47 77.82L102.43 48.55L126.72 32.71L130.43 38.4L113.24 49.61L116.84 55.14L133.16 44.5L136.87 50.2H136.85Z" fill="#0F0C11"/>
<path d="M153.55 49.46L153.95 57.94L145.96 61.43L144.86 23.81L154.85 19.45L182.33 45.54L173.93 49.21L167.76 43.24L153.54 49.45L153.55 49.46ZM162.92 37.96C156.73 31.95 153.63 28.81 151.81 26.74L151.76 26.76C152.11 29.42 152.5 35.04 152.83 42.36L162.91 37.96H162.92Z" fill="#0F0C11"/>
<path d="M181.24 10.19L186.05 29.34C187.86 36.56 192.12 37.43 196.25 36.39C200.67 35.28 203.17 32.6 201.38 25.48L196.57 6.33001L204.79 4.26001L209.66 23.65C212.25 33.94 207.71 40.3 197.67 42.83C187.91 45.28 180.59 42.37 177.95 31.84L173.03 12.26L181.25 10.19H181.24Z" fill="#0F0C11"/>
<path d="M224.29 8.77L212.05 9.84L211.46 3.12L244.34 0.25L244.93 6.97L232.74 8.04L235.19 36.11L226.75 36.85L224.3 8.78L224.29 8.77Z" fill="#0F0C11"/>
<path d="M261.34 35.9L262.23 23.43C262.26 22.99 262.13 22.73 261.87 22.26L249.01 0L259.04 0.72C262.06 6.41 265.88 13.35 267.28 16.78C269.29 13.64 274.17 7.28 277.97 2.08L287.16 2.74L270.93 23.26C270.76 23.55 270.7 23.74 270.66 24.19L269.78 36.51L261.33 35.9H261.34Z" fill="#0F0C11"/>
<path d="M324.88 32.95L306.1 27.77L303.99 35.42L324.87 41.18L322.11 47.47L294.02 39.72L303.29 6.04999L331.24 13.76L329.44 20.31L309.66 14.85L307.91 21.21L326.69 26.39L324.89 32.94L324.88 32.95Z" fill="#0F0C11"/>
<path d="M334.85 53.02L336.5 15.34L345.01 19.26L343.66 36.93C343.1 43.61 342.6 47.09 342.21 49.36L342.3 49.4C343.64 47.78 344.71 46.63 351.45 39.8L363.52 27.77L371.76 31.56L344.04 57.25L334.85 53.02Z" fill="#0F0C11"/>
<path d="M388.57 66.97L372.34 56.19L367.96 62.8L386.01 74.78L381.43 79.89L357.15 63.77L376.43 34.67L400.59 50.71L396.84 56.37L379.74 45.02L376.1 50.52L392.33 61.3L388.58 66.96L388.57 66.97Z" fill="#0F0C11"/>
<path d="M399.22 77.71L390.16 87.63L383.98 81.97L407.52 56.2L421.53 69.02C427.49 74.48 428.22 80.52 424.17 84.95C421.13 88.28 417.42 88.45 414.12 86.91C414.78 88.32 416.59 91.86 412.37 96.47L411.2 97.75C409.56 99.54 407.76 101.52 406.98 103.03L400.58 97.17C401.18 95.63 402.55 94.06 405.02 91.35L405.82 90.47C408.19 87.87 408.21 85.94 404.45 82.49L399.22 77.7V77.71ZM403.54 72.99L409.98 78.88C413.02 81.66 415.34 81.76 417.31 79.6C419.18 77.55 418.87 75.18 415.9 72.46L409.43 66.54L403.54 72.98V72.99Z" fill="#0F0C11"/>
<path d="M415.44 113.5L425.21 105.71C425.56 105.43 425.66 105.16 425.82 104.65L433.47 80.1L439.74 87.98C437.61 94.06 435.1 101.57 433.52 104.92C437.19 104.28 445.17 103.56 451.56 102.84L457.3 110.06L431.23 112.01C430.9 112.08 430.72 112.16 430.37 112.44L420.72 120.13L415.44 113.49V113.5Z" fill="#0F0C11"/>
<path d="M432.69 136.42L458.98 111.41L463.1 119.27C456.93 124.8 447.11 133.94 441.91 137.57L441.93 137.61C448.17 135.62 461.12 132.91 469.36 131.22L473.11 138.38C467.32 143.89 456.54 153.97 452.46 157.18L452.51 157.27C458.59 155.2 471.59 152.24 479.42 150.42L483.38 157.98L447.58 164.85L443.32 156.72C449.09 151.17 459.23 141.81 463.14 138.47L463.12 138.43C457.37 140.27 445.64 142.68 436.92 144.51L432.68 136.43L432.69 136.42Z" fill="#0F0C11"/>
<path d="M485.36 165.56L487.7 173.71L475.13 177.33L479.57 192.77L492.14 189.15L494.48 197.3L460.95 206.96L458.61 198.81L473.04 194.65L468.6 179.2L454.17 183.36L451.83 175.21L485.36 165.55V165.56Z" fill="#0F0C11"/>
<path d="M479.56 238.06L477.31 218.69L469.43 219.61L471.93 241.14L465.07 240.94L461.7 211.96L496.36 207.93L499.71 236.76L492.97 237.54L490.6 217.14L484.05 217.9L486.3 237.27L479.56 238.05V238.06Z" fill="#0F0C11"/>
<path d="M478.24 253.15L464.82 252.63L465.14 244.25L500 245.59L499.27 264.58C498.96 272.66 494.82 277.12 488.83 276.89C484.32 276.72 481.8 273.99 480.84 270.48C480.19 271.89 478.66 275.56 472.42 275.32L470.69 275.25C468.26 275.16 465.59 275.05 463.94 275.44L464.27 266.76C465.83 266.22 467.91 266.25 471.57 266.4L472.76 266.45C476.28 266.58 477.76 265.35 477.96 260.25L478.23 253.16L478.24 253.15ZM484.63 253.39L484.3 262.11C484.14 266.22 485.56 268.07 488.48 268.18C491.25 268.29 492.86 266.51 493.01 262.5L493.35 253.73L484.63 253.4V253.39Z" fill="#0F0C11"/>
<path d="M472.33 309.4L476.1 290.27L468.32 288.73L464.13 310L457.66 307.71L463.3 279.09L497.53 285.85L491.91 314.33L485.25 313.01L489.22 292.86L482.75 291.58L478.98 310.71L472.32 309.39L472.33 309.4Z" fill="#0F0C11"/>
<path d="M44.67 391.76L64.69 359.81L70.16 367.42L60.27 382.12C56.49 387.65 54.34 390.43 52.87 392.21L52.93 392.29C54.9 391.55 56.39 391.08 65.63 388.47L82.06 383.98L87.36 391.35L50.59 399.98L44.69 391.76H44.67Z" fill="#0F0C11"/>
<path d="M93.6601 397.13L67.7401 420.5L62.0701 414.2L87.9901 390.83L93.6601 397.13Z" fill="#0F0C11"/>
<path d="M84.4401 422.76C83.1601 425.68 83.6201 428.74 87.9401 432.61C92.0001 436.25 94.2701 436.01 95.7601 434.35C97.3801 432.54 97.0901 430.48 92.4501 424.66C84.7901 415.01 85.7701 410.63 88.9101 407.12C93.5701 401.9 100.9 403.74 107.07 409.26C115.97 417.23 114.32 423.99 111.9 427.29L105.58 421.64C106.37 420.02 107.03 417.48 102.75 413.65C99.7601 410.97 97.3801 410.58 95.8701 412.28C94.5501 413.76 94.9301 415.5 99.0401 420.71C107.32 431.31 106.2 435.7 102.83 439.47C98.8001 443.98 91.9801 444.47 83.2701 436.67C75.14 429.4 74.7201 422.5 78.1001 417.08L84.4501 422.77L84.4401 422.76Z" fill="#0F0C11"/>
<path d="M127.59 426.67L116.91 443.27C112.89 449.53 115.16 453.23 118.74 455.54C122.57 458.01 126.23 458.01 130.2 451.83L140.87 435.23L148 439.82L137.19 456.63C131.45 465.56 123.71 466.59 115.01 460.98C106.55 455.53 103.67 448.19 109.55 439.05L120.47 422.07L127.59 426.66V426.67Z" fill="#0F0C11"/>
<path d="M146.56 468.8L140.63 474.87L132.63 471.39L159.4 444.96L169.4 449.31L169.04 487.23L160.63 483.57L160.79 474.99L146.56 468.8ZM161.36 467.83C161.54 459.2 161.73 454.79 162 452.05L161.95 452.03C160.24 454.1 156.4 458.21 151.27 463.44L161.36 467.83Z" fill="#0F0C11"/>
<path d="M183 454.61L191.19 456.79L183.95 483.97L202.82 489L199.97 495.27L174.02 488.35L183 454.6V454.61Z" fill="#0F0C11"/>
<path d="M221.05 463.58L236.78 464.52C248.51 465.22 254.48 473.23 253.93 482.45C253.26 493.59 244.69 499.99 234.55 499.38L218.97 498.45L221.06 463.58H221.05ZM227.82 492.42L233.81 492.78C240.64 493.19 244.53 489.55 244.97 482.12C245.36 475.68 242.23 471.47 235.21 470.95L229.13 470.59L227.82 492.43V492.42Z" fill="#0F0C11"/>
<path d="M286.93 482.66L267.54 484.52L268.3 492.42L289.86 490.35L289.52 497.21L260.51 500L257.17 465.23L286.03 462.46L286.68 469.23L266.26 471.19L266.89 477.76L286.28 475.9L286.93 482.67V482.66Z" fill="#0F0C11"/>
<path d="M300.29 484.23C302 486.92 304.79 488.25 310.41 486.83C315.69 485.49 316.77 483.47 316.22 481.31C315.62 478.95 313.76 478.05 306.34 478.65C294.06 479.62 290.98 476.36 289.82 471.8C288.1 465.02 293.72 459.96 301.74 457.92C313.31 454.98 318 460.13 319.38 463.97L311.17 466.06C310.26 464.5 308.54 462.53 302.96 463.95C299.07 464.94 297.42 466.69 297.98 468.9C298.47 470.82 300.12 471.48 306.74 470.97C320.15 470.01 323.15 473.4 324.4 478.3C325.89 484.16 322.49 490.1 311.15 492.98C300.58 495.67 294.63 492.17 292.03 486.33L300.29 484.23Z" fill="#0F0C11"/>
<path d="M328.7 450.03L340.88 482.75L332.94 485.71L320.76 452.99L328.7 450.03Z" fill="#0F0C11"/>
<path d="M379.84 464.01L374.38 466.84C373.86 466.27 372.91 464.98 372.21 463.94C371.48 467.28 369.57 470.17 363.77 473.18C353.74 478.38 344.57 474.37 339.88 465.29C335.18 456.22 337.36 445.87 348.45 440.12C358.39 434.96 365.47 438.17 368.63 442.23L361.06 446.15C359.62 444.88 356.45 443.18 351.39 445.8C345.01 449.11 344.63 455.06 347.62 460.83C350.77 466.91 355.97 469.96 362.31 466.68C367.55 463.97 368.51 460 366.59 456.3L366.34 455.82L358.82 459.72L355.81 453.91L370.64 446.22L379.85 464.01H379.84Z" fill="#0F0C11"/>
<path d="M387.57 459.03L366.41 431.27L374.37 425.19C391.25 431.14 397.67 433.1 401.9 435.05L401.98 434.99C399.48 432.28 395.58 427.09 392.09 422.51L386.86 415.65L393.05 410.93L414.21 438.69L406.72 444.41C400.96 442.25 381.54 435.25 377.48 433.36L377.4 433.42C380.22 436.63 383.26 440.61 387.02 445.54L393.72 454.34L387.57 459.03Z" fill="#0F0C11"/>
<path d="M429.92 401.42L416.53 415.58L422.29 421.04L437.18 405.3L441.43 410.69L421.39 431.87L396.05 407.86L415.98 386.79L420.91 391.46L406.8 406.37L411.59 410.91L424.98 396.75L429.91 401.42H429.92Z" fill="#0F0C11"/>
<path d="M440.1 389.97L451.14 397.63L446.37 404.52L417.69 384.63L428.5 369.01C433.1 362.36 438.98 360.83 443.91 364.25C447.62 366.82 448.28 370.48 447.2 373.96C448.51 373.12 451.76 370.85 456.9 374.41L458.33 375.4C460.33 376.78 462.53 378.31 464.12 378.88L459.18 386.02C457.58 385.63 455.84 384.49 452.82 382.4L451.84 381.72C448.95 379.71 447.03 379.95 444.12 384.16L440.08 389.99L440.1 389.97ZM434.84 386.33L439.81 379.15C442.15 375.77 441.95 373.45 439.54 371.78C437.26 370.2 434.95 370.83 432.66 374.13L427.66 381.35L434.83 386.32L434.84 386.33Z" fill="#0F0C11"/>
<path d="M171.86 403.98C157.87 403.98 148.83 394.77 148.83 380.52C148.83 366.27 158.73 356.82 172.91 356.82C188.78 356.82 192.99 366.55 194.07 370.74C194.22 371.32 194.09 371.94 193.72 372.42C193.35 372.9 192.78 373.17 192.18 373.17H186.11C185.32 373.17 184.6 372.69 184.3 371.95C182.58 367.68 178.73 365.51 172.85 365.51C162.57 365.51 158.91 373.08 158.91 380.16C158.91 389.45 164.21 395.22 172.73 395.22C180.16 395.22 184.06 391.89 184.32 385.32H172.85C171.77 385.32 170.9 384.45 170.9 383.37V378.4C170.9 377.32 171.77 376.45 172.85 376.45H191.95C193.03 376.45 193.9 377.32 193.9 378.4V401.14C193.9 402.22 193.03 403.09 191.95 403.09H187.45C186.5 403.09 185.69 402.4 185.53 401.46C185.47 401.11 185.41 400.57 185.34 399.94C182.11 402.7 177.77 403.97 171.86 403.97V403.98Z" fill="#0F0C11"/>
<path d="M191.95 401.15H187.45C187.27 400.1 186.98 396.82 186.98 395.01C184.24 399.45 179.97 402.03 171.85 402.03C158.77 402.03 150.77 393.44 150.77 380.52C150.77 368.3 159.06 358.77 172.9 358.77C185.28 358.77 190.6 365.08 192.17 371.22H186.1C184.52 367.3 180.9 363.56 172.84 363.56C162.44 363.56 156.95 370.87 156.95 380.16C156.95 389.98 162.5 397.17 172.72 397.17C181.36 397.17 186.27 392.79 186.27 384.6V383.37H172.84V378.4H191.94V401.14L191.95 401.15Z" fill="#0F0C11"/>
<path d="M215.13 403.92C203.61 403.92 197.59 395.09 197.59 386.36C197.59 376.19 205.09 368.8 215.42 368.8C226.97 368.8 233.02 377.63 233.02 386.36C233.02 391.08 231.42 395.41 228.52 398.56C225.28 402.07 220.65 403.92 215.13 403.92ZM215.19 377.26C209.31 377.26 207.21 381.96 207.21 386.36C207.21 390.76 209.74 395.46 215.31 395.46C222.82 395.46 223.41 388.54 223.41 386.42C223.41 381.86 220.87 377.26 215.2 377.26H215.19Z" fill="#0F0C11"/>
<path d="M231.08 386.36C231.08 394.54 225.77 401.97 215.14 401.97C205.15 401.97 199.55 394.55 199.55 386.36C199.55 378.17 205.51 370.75 215.44 370.75C225.37 370.75 231.09 378.53 231.09 386.36H231.08ZM205.26 386.36C205.26 392.03 208.82 397.41 215.31 397.41C221.8 397.41 225.36 392.38 225.36 386.42C225.36 380.46 221.8 375.31 215.2 375.31C208.6 375.31 205.27 380.45 205.27 386.36H205.26Z" fill="#0F0C11"/>
<path d="M260.4 403.1C259.32 403.1 258.45 402.23 258.45 401.15V384.14C258.45 378.15 255.56 377.38 253.04 377.38C246.76 377.38 245.82 383.37 245.82 386.95V401.16C245.82 402.24 244.95 403.11 243.87 403.11H238.32C237.24 403.11 236.37 402.24 236.37 401.16V379.06C236.37 376.61 236.37 373.82 236.31 371.63C236.3 371.1 236.49 370.6 236.86 370.22C237.23 369.84 237.73 369.63 238.25 369.63H243.62C244.61 369.63 245.44 370.37 245.55 371.35C245.56 371.46 245.58 371.58 245.59 371.71C247.55 370.12 250.42 368.81 254.54 368.81C262.8 368.81 267.93 374.31 267.93 383.15V401.16C267.93 402.24 267.06 403.11 265.98 403.11H260.37L260.4 403.1Z" fill="#0F0C11"/>
<path d="M238.32 379.06C238.32 376.55 238.32 373.8 238.26 371.58H243.63C243.75 372.57 243.86 375.03 243.86 377.08C245.14 374.22 248.24 370.77 254.55 370.77C261.5 370.77 266 375.04 266 383.16V401.17H260.39V384.16C260.39 379.31 258.58 375.45 253.03 375.45C246.9 375.45 243.86 380.13 243.86 386.97V401.18H238.31V379.08L238.32 379.06Z" fill="#0F0C11"/>
<path d="M272.6 403.1C271.52 403.1 270.65 402.23 270.65 401.15V397C270.65 396.49 270.85 396 271.21 395.64L288.46 378.02H273.71C272.63 378.02 271.76 377.15 271.76 376.07V371.57C271.76 370.49 272.63 369.62 273.71 369.62H300.22C301.3 369.62 302.17 370.49 302.17 371.57V375.84C302.17 376.35 301.97 376.84 301.62 377.2L284.59 394.64H301.57C302.15 394.64 302.7 394.9 303.07 395.35C303.44 395.8 303.59 396.39 303.48 396.96L302.6 401.52C302.42 402.44 301.62 403.1 300.69 403.1H272.6Z" fill="#0F0C11"/>
<path d="M272.6 397L293.1 376.07H273.71V371.57H300.22V375.84L279.95 396.59H301.56L300.68 401.15H272.59V397H272.6Z" fill="#0F0C11"/>
<path d="M307.49 403.1C306.41 403.1 305.54 402.23 305.54 401.15V397C305.54 396.49 305.74 396 306.1 395.64L323.35 378.02H308.6C307.52 378.02 306.65 377.15 306.65 376.07V371.57C306.65 370.49 307.52 369.62 308.6 369.62H335.11C336.19 369.62 337.06 370.49 337.06 371.57V375.84C337.06 376.35 336.86 376.84 336.51 377.2L319.48 394.64H336.46C337.04 394.64 337.59 394.9 337.96 395.35C338.33 395.8 338.48 396.39 338.37 396.96L337.49 401.52C337.31 402.44 336.51 403.1 335.58 403.1H307.49Z" fill="#0F0C11"/>
<path d="M307.49 397L327.99 376.07H308.6V371.57H335.11V375.84L314.84 396.59H336.45L335.57 401.15H307.48V397H307.49Z" fill="#0F0C11"/>
<path d="M346.99 403.11C349.26 403.11 351.1 401.265 351.1 398.99C351.1 396.715 349.26 394.87 346.99 394.87C344.72 394.87 342.88 396.715 342.88 398.99C342.88 401.265 344.72 403.11 346.99 403.11Z" fill="#0F0C11"/>
<path d="M158.15 189.43C157.47 192.6 154.94 194.85 150.14 194.85C144.6 194.85 141.82 191.3 141.82 187.03C141.82 182.76 144.56 179.23 150.34 179.23C155.41 179.23 157.79 181.87 158.18 184.57H153.3C153.09 183.76 152.47 182.53 150.33 182.53C148.06 182.53 146.95 184.32 146.95 186.93C146.95 189.31 147.84 191.52 150.35 191.52C152.15 191.52 152.9 190.71 153.32 189.44H158.16L158.15 189.43Z" fill="#0F0C11"/>
<path d="M163.93 189V194.51H159.15V179.57H168.2C171.89 179.57 173.85 181.38 173.85 183.86C173.85 185.77 172.73 186.92 171.26 187.43C172.07 187.77 173.45 188.49 173.45 191.02V191.83C173.45 192.68 173.45 193.79 173.66 194.51H168.82C168.59 193.87 168.52 192.96 168.52 191.41V190.92C168.52 189.52 168.07 189.01 166.18 189.01H163.93V189ZM163.93 185.9H166.9C168.22 185.9 168.96 185.41 168.96 184.35C168.96 183.35 168.28 182.78 166.9 182.78H163.93V185.91V185.9Z" fill="#0F0C11"/>
<path d="M179.81 191.72L178.85 194.51H173.99L179.64 179.57H185.97L191.98 194.51H186.78L185.76 191.72H179.81ZM184.63 188.26C183.65 185.56 183.08 183.86 182.72 182.63H182.64C182.32 183.86 181.66 185.99 180.86 188.26H184.64H184.63Z" fill="#0F0C11"/>
<path d="M192.43 179.56H205.45V183H197.25V185.68H204.92V189.15H197.25V194.51H192.43V179.57V179.56Z" fill="#0F0C11"/>
<path d="M210.8 183.01H205.85V179.57H220.54V183.01H215.64V194.51H210.8V183.01Z" fill="#0F0C11"/>
<path d="M226.35 179.56V194.5H221.51V179.56H226.35Z" fill="#0F0C11"/>
<path d="M228.7 194.51V179.57H234.35C237.66 184.93 238.77 186.86 239.74 188.8H239.82C239.67 187.38 239.69 184.68 239.69 182.21V179.57H244.04V194.51H238.71C237.54 192.43 233.87 186.07 232.98 184.24H232.92C233.05 185.94 233.07 187.94 233.07 190.87V194.51H228.7Z" fill="#0F0C11"/>
<path d="M261.85 194.51H258.52C258.41 194.19 258.31 193.66 258.22 193.15C257.26 194.21 256.01 194.85 253.27 194.85C248.34 194.85 245.63 191.53 245.63 187.18C245.63 182.83 248.33 179.23 254.21 179.23C258.94 179.23 261.43 181.63 261.88 184.14H257.02C256.79 183.44 256.15 182.42 254.2 182.42C251.67 182.42 250.76 184.5 250.76 186.93C250.76 189.57 251.8 191.58 254.31 191.58C256.43 191.58 257.2 190.37 257.2 189.22V189.07H254.27V185.8H261.87V194.51H261.85Z" fill="#0F0C11"/>
<path d="M272.81 179.56V188.21C272.81 190.59 273.96 191.38 275.55 191.38C277.23 191.38 278.12 190.51 278.12 188.21V179.56H282.98V188.23C282.98 192.57 280.56 194.84 275.42 194.84C270.28 194.84 267.95 192.69 267.95 188.23V179.56H272.81Z" fill="#0F0C11"/>
<path d="M285.13 194.51V179.57H290.78C294.09 184.93 295.2 186.86 296.17 188.8H296.25C296.1 187.38 296.12 184.68 296.12 182.21V179.57H300.47V194.51H295.14C293.97 192.43 290.3 186.07 289.41 184.24H289.35C289.48 185.94 289.5 187.94 289.5 190.87V194.51H285.12H285.13Z" fill="#0F0C11"/>
<path d="M307.69 179.56V194.5H302.85V179.56H307.69Z" fill="#0F0C11"/>
<path d="M326.29 187.01C326.29 189.28 325.48 191.39 323.81 192.83L327.17 195.06L324.75 197.84L319.93 194.63C319.23 194.78 318.46 194.84 317.64 194.84C312.25 194.84 309.27 191.4 309.27 187.02C309.27 182.9 312.16 179.22 317.85 179.22C323.24 179.22 326.3 182.75 326.3 187L326.29 187.01ZM314.38 186.94C314.38 189.55 315.42 191.47 317.86 191.47C320.3 191.47 321.17 189.28 321.17 187.03C321.17 184.44 320.26 182.52 317.73 182.52C315.2 182.52 314.37 184.5 314.37 186.94H314.38Z" fill="#0F0C11"/>
<path d="M332.41 179.56V188.21C332.41 190.59 333.56 191.38 335.15 191.38C336.83 191.38 337.72 190.51 337.72 188.21V179.56H342.58V188.23C342.58 192.57 340.16 194.84 335.02 194.84C329.88 194.84 327.55 192.69 327.55 188.23V179.56H332.41Z" fill="#0F0C11"/>
<path d="M357.49 188.56H349.51V191.07H358.43L357.88 194.51H344.74V179.57H357.93V183.01H349.52V185.09H357.5V188.56H357.49Z" fill="#0F0C11"/>
<path d="M107.56 200.82H115.95C119.54 200.82 122.04 202.61 122.04 205.69C122.04 208.77 119.68 210.68 115.97 210.68H112.38V215.76H107.56V200.82ZM112.38 207.41H115.2C116.5 207.41 117.26 206.88 117.26 205.73C117.26 204.77 116.69 204.09 115.2 204.09H112.38V207.41Z" fill="#0F0C11"/>
<path d="M127.86 210.26V215.77H123.08V200.83H132.13C135.82 200.83 137.78 202.64 137.78 205.12C137.78 207.03 136.66 208.18 135.19 208.69C136 209.03 137.38 209.75 137.38 212.28V213.09C137.38 213.94 137.38 215.05 137.59 215.77H132.75C132.52 215.13 132.45 214.22 132.45 212.67V212.18C132.45 210.78 132 210.27 130.11 210.27H127.86V210.26ZM127.86 207.16H130.83C132.15 207.16 132.89 206.67 132.89 205.61C132.89 204.61 132.21 204.04 130.83 204.04H127.86V207.17V207.16Z" fill="#0F0C11"/>
<path d="M155.43 208.27C155.43 212.48 152.63 216.11 146.77 216.11C141.38 216.11 138.4 212.67 138.4 208.29C138.4 204.17 141.29 200.49 146.98 200.49C152.37 200.49 155.43 204.02 155.43 208.27ZM143.52 208.2C143.52 210.81 144.56 212.73 147 212.73C149.44 212.73 150.31 210.54 150.31 208.29C150.31 205.7 149.4 203.78 146.87 203.78C144.34 203.78 143.52 205.76 143.52 208.2Z" fill="#0F0C11"/>
<path d="M156.92 200.82H169.94V204.26H161.74V206.94H169.41V210.41H161.74V215.77H156.92V200.83V200.82Z" fill="#0F0C11"/>
<path d="M183.85 209.82H175.87V212.33H184.79L184.24 215.77H171.1V200.83H184.29V204.27H175.88V206.35H183.86V209.82H183.85Z" fill="#0F0C11"/>
<path d="M189.86 211.26C190.18 212.26 190.94 213 192.9 213C194.62 213 195.15 212.47 195.15 211.72C195.15 210.93 194.68 210.47 191.88 209.98C186.36 209.02 185.57 207.13 185.57 205.15C185.57 202.2 188.35 200.47 192.43 200.47C197.4 200.47 199.37 202.77 199.56 204.98H194.85C194.68 204.32 194.28 203.56 192.41 203.56C191.09 203.56 190.48 203.99 190.48 204.69C190.48 205.39 191.1 205.71 193.43 206.14C199.06 207.14 200.16 208.92 200.16 211.18C200.16 214.03 197.76 216.09 192.69 216.09C187.62 216.09 185.45 213.96 185 211.26H189.86Z" fill="#0F0C11"/>
<path d="M205.47 211.26C205.79 212.26 206.55 213 208.51 213C210.23 213 210.76 212.47 210.76 211.72C210.76 210.93 210.29 210.47 207.49 209.98C201.97 209.02 201.18 207.13 201.18 205.15C201.18 202.2 203.96 200.47 208.04 200.47C213.01 200.47 214.98 202.77 215.17 204.98H210.45C210.28 204.32 209.88 203.56 208.01 203.56C206.69 203.56 206.08 203.99 206.08 204.69C206.08 205.39 206.7 205.71 209.03 206.14C214.66 207.14 215.76 208.92 215.76 211.18C215.76 214.03 213.36 216.09 208.29 216.09C203.22 216.09 201.05 213.96 200.6 211.26H205.46H205.47Z" fill="#0F0C11"/>
<path d="M221.99 200.82V215.76H217.15V200.82H221.99Z" fill="#0F0C11"/>
<path d="M240.59 208.27C240.59 212.48 237.79 216.11 231.93 216.11C226.54 216.11 223.56 212.67 223.56 208.29C223.56 204.17 226.45 200.49 232.14 200.49C237.53 200.49 240.59 204.02 240.59 208.27ZM228.68 208.2C228.68 210.81 229.72 212.73 232.16 212.73C234.6 212.73 235.47 210.54 235.47 208.29C235.47 205.7 234.56 203.78 232.03 203.78C229.5 203.78 228.68 205.76 228.68 208.2Z" fill="#0F0C11"/>
<path d="M242.08 215.77V200.83H247.73C251.04 206.19 252.15 208.12 253.12 210.06H253.2C253.05 208.64 253.07 205.94 253.07 203.47V200.83H257.42V215.77H252.09C250.92 213.69 247.25 207.33 246.36 205.5H246.3C246.43 207.2 246.45 209.2 246.45 212.13V215.77H242.08Z" fill="#0F0C11"/>
<path d="M263.81 212.98L262.85 215.77H257.99L263.64 200.83H269.97L275.98 215.77H270.78L269.76 212.98H263.81ZM268.63 209.52C267.65 206.82 267.08 205.12 266.72 203.89H266.64C266.32 205.12 265.66 207.25 264.86 209.52H268.64H268.63Z" fill="#0F0C11"/>
<path d="M276.43 200.82H281.29V212.3H289.3L288.73 215.77H276.43V200.83V200.82Z" fill="#0F0C11"/>
<path d="M294.5 200.82H303.7C307.52 200.82 309.11 202.63 309.11 204.69C309.11 206.43 308.05 207.45 306.8 207.88C308.29 208.35 309.69 209.45 309.69 211.35C309.69 213.94 307.78 215.77 303.6 215.77H294.51V200.83L294.5 200.82ZM302.5 206.56C303.84 206.56 304.24 205.96 304.24 205.24C304.24 204.35 303.58 203.92 302.5 203.92H299.21V206.56H302.5ZM299.21 212.69H302.56C303.86 212.69 304.6 212.22 304.6 211.12C304.6 210.21 304.01 209.63 302.67 209.63H299.21V212.69Z" fill="#0F0C11"/>
<path d="M315.82 210.26V215.77H311.04V200.83H320.08C323.78 200.83 325.73 202.64 325.73 205.12C325.73 207.03 324.6 208.18 323.14 208.69C323.95 209.03 325.33 209.75 325.33 212.28V213.09C325.33 213.94 325.33 215.05 325.54 215.77H320.7C320.47 215.13 320.4 214.22 320.4 212.67V212.18C320.4 210.78 319.95 210.27 318.06 210.27H315.81L315.82 210.26ZM315.82 207.16H318.79C320.11 207.16 320.85 206.67 320.85 205.61C320.85 204.61 320.17 204.04 318.79 204.04H315.82V207.17V207.16Z" fill="#0F0C11"/>
<path d="M331.71 212.98L330.75 215.77H325.89L331.54 200.83H337.87L343.88 215.77H338.68L337.66 212.98H331.71ZM336.53 209.52C335.55 206.82 334.98 205.12 334.62 203.89H334.54C334.22 205.12 333.56 207.25 332.76 209.52H336.54H336.53Z" fill="#0F0C11"/>
<path d="M344.32 215.77V200.83H349.97C353.28 206.19 354.39 208.12 355.36 210.06H355.44C355.29 208.64 355.31 205.94 355.31 203.47V200.83H359.66V215.77H354.33C353.16 213.69 349.49 207.33 348.6 205.5H348.54C348.67 207.2 348.69 209.2 348.69 212.13V215.77H344.32Z" fill="#0F0C11"/>
<path d="M362.04 200.82H369.6C374.99 200.82 377.71 204.12 377.71 208.05C377.71 212.66 374.33 215.77 369.56 215.77H362.04V200.83V200.82ZM366.88 212.41H368.98C371.38 212.41 372.59 210.96 372.59 208.16C372.59 205.86 371.63 204.19 368.98 204.16H366.88V212.41Z" fill="#0F0C11"/>
<path d="M382.91 211.26C383.23 212.26 383.99 213 385.95 213C387.67 213 388.2 212.47 388.2 211.72C388.2 210.93 387.73 210.47 384.93 209.98C379.41 209.02 378.62 207.13 378.62 205.15C378.62 202.2 381.4 200.47 385.48 200.47C390.45 200.47 392.42 202.77 392.61 204.98H387.9C387.73 204.32 387.33 203.56 385.46 203.56C384.14 203.56 383.53 203.99 383.53 204.69C383.53 205.39 384.15 205.71 386.48 206.14C392.11 207.14 393.21 208.92 393.21 211.18C393.21 214.03 390.81 216.09 385.74 216.09C380.67 216.09 378.5 213.96 378.05 211.26H382.91Z" fill="#0F0C11"/>
<path d="M160.79 222.08H173.81V225.52H165.61V228.2H173.28V231.67H165.61V237.03H160.79V222.09V222.08Z" fill="#0F0C11"/>
<path d="M179.74 231.52V237.03H174.96V222.09H184.01C187.7 222.09 189.66 223.9 189.66 226.38C189.66 228.29 188.54 229.44 187.07 229.95C187.88 230.29 189.26 231.01 189.26 233.54V234.35C189.26 235.2 189.26 236.31 189.47 237.03H184.63C184.4 236.39 184.33 235.48 184.33 233.93V233.44C184.33 232.04 183.88 231.53 181.99 231.53H179.74V231.52ZM179.74 228.42H182.71C184.03 228.42 184.77 227.93 184.77 226.87C184.77 225.87 184.09 225.3 182.71 225.3H179.74V228.43V228.42Z" fill="#0F0C11"/>
<path d="M207.3 229.53C207.3 233.74 204.5 237.37 198.64 237.37C193.25 237.37 190.27 233.93 190.27 229.55C190.27 225.43 193.16 221.75 198.85 221.75C204.24 221.75 207.3 225.28 207.3 229.53ZM195.39 229.46C195.39 232.07 196.43 233.99 198.87 233.99C201.31 233.99 202.18 231.8 202.18 229.55C202.18 226.96 201.27 225.04 198.74 225.04C196.21 225.04 195.38 227.02 195.38 229.46H195.39Z" fill="#0F0C11"/>
<path d="M222.81 231.99C222.81 229.61 222.87 226.74 222.98 225H222.94C222.22 227.89 221.26 231.74 219.76 237.03H215.79C214.6 232.12 213.65 227.97 212.9 224.96H212.86C212.97 226.7 213.14 229.59 213.14 232.17V237.04H208.81V222.1H215.75C216.71 225.46 217.66 229.14 218.09 231.64H218.11C218.68 229 219.64 225.52 220.64 222.1H227.56V237.04H222.83V232L222.81 231.99Z" fill="#0F0C11"/>
<path d="M237.61 225.53H232.66V222.09H247.35V225.53H242.44V237.03H237.6V225.53H237.61Z" fill="#0F0C11"/>
<path d="M248.32 222.08H253.16V227.48H258.55V222.08H263.41V237.02H258.55V230.92H253.16V237.02H248.32V222.08Z" fill="#0F0C11"/>
<path d="M278.51 231.08H270.53V233.59H279.45L278.9 237.03H265.76V222.09H278.95V225.53H270.54V227.61H278.52V231.08H278.51Z" fill="#0F0C11"/>
<path d="M289.82 222.08V237.02H284.98V222.08H289.82Z" fill="#0F0C11"/>
<path d="M292.17 222.08H299.73C305.12 222.08 307.84 225.38 307.84 229.31C307.84 233.92 304.46 237.03 299.69 237.03H292.17V222.09V222.08ZM297.02 233.67H299.12C301.52 233.67 302.73 232.22 302.73 229.42C302.73 227.12 301.77 225.45 299.12 225.42H297.02V233.67Z" fill="#0F0C11"/>
<path d="M322.1 231.08H314.12V233.59H323.04L322.49 237.03H309.35V222.09H322.54V225.53H314.13V227.61H322.11V231.08H322.1Z" fill="#0F0C11"/>
<path d="M328.87 234.24L327.91 237.03H323.05L328.7 222.09H335.03L341.04 237.03H335.84L334.82 234.24H328.87ZM333.69 230.78C332.71 228.08 332.14 226.38 331.78 225.15H331.7C331.38 226.38 330.72 228.51 329.92 230.78H333.7H333.69Z" fill="#0F0C11"/>
<path d="M186.88 246.79H181.93V243.35H196.62V246.79H191.71V258.29H186.87V246.79H186.88Z" fill="#0F0C11"/>
<path d="M213.56 250.78C213.56 254.99 210.76 258.62 204.9 258.62C199.51 258.62 196.53 255.18 196.53 250.8C196.53 246.68 199.42 243 205.11 243C210.5 243 213.56 246.53 213.56 250.78ZM201.65 250.72C201.65 253.33 202.69 255.25 205.13 255.25C207.57 255.25 208.44 253.06 208.44 250.81C208.44 248.22 207.53 246.3 205 246.3C202.47 246.3 201.65 248.28 201.65 250.72Z" fill="#0F0C11"/>
<path d="M224.18 252.78V258.29H219.4V243.35H228.44C232.14 243.35 234.09 245.16 234.09 247.64C234.09 249.55 232.96 250.7 231.5 251.21C232.31 251.55 233.69 252.27 233.69 254.8V255.61C233.69 256.46 233.69 257.57 233.9 258.29H229.06C228.83 257.65 228.76 256.74 228.76 255.19V254.7C228.76 253.3 228.31 252.79 226.42 252.79H224.17L224.18 252.78ZM224.18 249.68H227.15C228.47 249.68 229.21 249.19 229.21 248.13C229.21 247.13 228.53 246.56 227.15 246.56H224.18V249.69V249.68Z" fill="#0F0C11"/>
<path d="M248.35 252.34H240.37V254.85H249.29L248.74 258.29H235.6V243.35H248.79V246.79H240.38V248.87H248.36V252.34H248.35Z" fill="#0F0C11"/>
<path d="M255.12 255.5L254.16 258.29H249.3L254.95 243.35H261.28L267.29 258.29H262.09L261.07 255.5H255.12ZM259.94 252.04C258.96 249.34 258.39 247.64 258.03 246.41H257.95C257.63 247.64 256.97 249.77 256.17 252.04H259.95H259.94Z" fill="#0F0C11"/>
<path d="M267.74 243.34H272.6V254.82H280.6L280.03 258.29H267.74V243.35V243.34Z" fill="#0F0C11"/>
<path d="M286.04 243.34V258.28H281.2V243.34H286.04Z" fill="#0F0C11"/>
<path d="M291.91 246.79H286.96V243.35H301.65V246.79H296.74V258.29H291.9V246.79H291.91Z" fill="#0F0C11"/>
<path d="M307.81 258.29V253.1C307.81 252.87 307.75 252.74 307.6 252.53L301.59 243.35H307.28C308.49 245.5 309.74 247.75 310.47 249.35C311.19 247.82 312.51 245.61 313.72 243.35H318.94L312.8 252.68C312.72 252.81 312.69 252.94 312.69 253.19V258.29H307.81Z" fill="#0F0C11"/>
<path d="M342.16 313.82H157.76C156.36 313.82 155.23 312.69 155.23 311.29C155.23 309.89 156.36 308.76 157.76 308.76H342.16C343.56 308.76 344.69 309.89 344.69 311.29C344.69 312.69 343.56 313.82 342.16 313.82Z" fill="#0F0C11"/>
</g>
<defs>
<clipPath id="clip0_60_2">
<rect width="500" height="500" fill="white"/>
</clipPath>
</defs>
</svg>
