<svg width="204" height="54" viewBox="0 0 204 54" fill="none" xmlns="http://www.w3.org/2000/svg">
<path d="M50 27C50 29.03 45.1 30.38 44.6 32.25C44.1 34.12 47.63 37.8 46.65 39.5C45.66 41.22 40.74 39.95 39.34 41.34C37.94 42.73 39.21 47.65 37.5 48.65C35.81 49.63 32.19 46.08 30.25 46.6C28.31 47.12 27.02 52 25 52C22.98 52 21.62 47.1 19.75 46.6C17.82 46.08 14.2 49.63 12.5 48.65C10.78 47.66 12.05 42.74 10.66 41.34C9.27 39.95 4.35 41.21 3.35 39.5C2.37 37.81 5.92 34.19 5.4 32.25C4.88 30.31 0 29.03 0 27C0 24.97 4.9 23.62 5.4 21.75C5.9 19.88 2.37 16.2 3.35 14.5C4.33 12.8 9.26 14.05 10.66 12.66C12.05 11.27 10.79 6.35 12.5 5.35C14.19 4.37 17.81 7.92 19.75 7.4C21.69 6.88 22.97 2 25 2C27.03 2 28.38 6.9 30.25 7.4C32.12 7.9 35.8 4.37 37.5 5.35C39.22 6.34 37.95 11.26 39.34 12.66C40.73 14.06 45.65 12.79 46.65 14.5C47.63 16.19 44.08 19.81 44.6 21.75C45.1 23.62 50 24.98 50 27Z" fill="#B617E6"/>
<path d="M178.57 52C192.377 52 203.57 40.8071 203.57 27C203.57 13.1929 192.377 2 178.57 2C164.763 2 153.57 13.1929 153.57 27C153.57 40.8071 164.763 52 178.57 52Z" fill="#FAAB00"/>
<path d="M127.76 27C127.76 24.9744 126.123 23.3308 124.1 23.3201V23.32H124.08H110.664L120.167 13.8171C121.608 12.3766 121.608 10.0534 120.167 8.61289C118.727 7.17237 116.403 7.17237 114.963 8.61289L105.46 18.1158V4.68C105.46 2.64772 103.812 1 101.78 1C99.7477 1 98.1 2.64772 98.1 4.68V18.1158L88.5971 8.61289C87.1566 7.17237 84.8334 7.17237 83.3929 8.61289C81.9524 10.0534 81.9524 12.3766 83.3929 13.8171L92.8958 23.32H79.46C77.4277 23.32 75.78 24.9677 75.78 27C75.78 29.0323 77.4277 30.68 79.46 30.68H92.8958L83.3929 40.1829C81.9524 41.6234 81.9524 43.9466 83.3929 45.3871C84.1101 46.1042 85.0587 46.46 85.99 46.46C86.9213 46.46 87.87 46.1042 88.5871 45.3871L98.09 35.8842V49.32C98.09 51.3523 99.7377 53 101.77 53C103.802 53 105.45 51.3523 105.45 49.32V35.8842L114.953 45.3871C115.67 46.1042 116.619 46.46 117.55 46.46C118.481 46.46 119.43 46.1042 120.147 45.3871C121.588 43.9466 121.588 41.6234 120.147 40.1829L110.644 30.68H124.08C126.112 30.68 127.76 29.0323 127.76 27Z" fill="#F4F4F4" stroke="#0F0C11" stroke-width="2"/>
</svg>
