<?xml version="1.0" encoding="UTF-8"?>
<svg id="Layer_2" data-name="Layer 2" xmlns="http://www.w3.org/2000/svg" viewBox="0 0 915.94 132.9">
  <defs>
    <style>
      .cls-1 {
        fill: #e8e4ea;
        stroke-width: 0px;
      }
    </style>
  </defs>
  <g id="Layer_1-2" data-name="Layer 1">
    <g>
      <g>
        <path class="cls-1" d="M59.15,121.14C23.22,121.14,0,97.51,0,60.94S25.43.15,61.85.15c40.76,0,51.58,24.97,54.34,35.7.39,1.5.06,3.09-.89,4.31-.95,1.22-2.41,1.94-3.95,1.94h-15.6c-2.04,0-3.88-1.24-4.64-3.13-4.42-10.96-14.31-16.52-29.41-16.52-26.39,0-35.8,19.42-35.8,37.6,0,23.84,13.6,38.65,35.5,38.65,19.09,0,29.09-8.54,29.76-25.4h-29.46c-2.76,0-5-2.24-5-5v-12.75c0-2.76,2.24-5,5-5h49.05c2.76,0,5,2.24,5,5v58.35c0,2.76-2.24,5-5,5h-11.55c-2.44,0-4.53-1.77-4.93-4.18-.15-.89-.32-2.27-.49-3.91-8.3,7.08-19.44,10.33-34.63,10.33Z"/>
        <path class="cls-1" d="M110.75,113.89h-11.55c-.45-2.7-1.2-11.1-1.2-15.75-7.05,11.4-18,18-38.85,18-33.6,0-54.15-22.05-54.15-55.2C5,29.59,26.3,5.15,61.85,5.15c31.8,0,45.45,16.2,49.5,31.95h-15.6c-4.05-10.05-13.35-19.65-34.05-19.65-26.7,0-40.8,18.75-40.8,42.6,0,25.2,14.25,43.65,40.5,43.65,22.2,0,34.8-11.25,34.8-32.25v-3.15h-34.5v-12.75h49.05v58.35Z"/>
        <path class="cls-1" d="M170.3,120.99c-29.57,0-45.05-22.66-45.05-45.05,0-26.1,19.26-45.05,45.8-45.05,29.67,0,45.2,22.66,45.2,45.05,0,12.11-4.11,23.22-11.56,31.29-8.31,9-20.2,13.76-34.38,13.76ZM170.45,52.59c-15.11,0-20.5,12.06-20.5,23.35s6.51,23.35,20.8,23.35c19.3,0,20.8-17.76,20.8-23.2,0-11.7-6.52-23.5-21.1-23.5Z"/>
        <path class="cls-1" d="M211.25,75.94c0,21-13.65,40.05-40.95,40.05-25.65,0-40.05-19.05-40.05-40.05s15.3-40.05,40.8-40.05,40.2,19.95,40.2,40.05ZM144.95,75.94c0,14.55,9.15,28.35,25.8,28.35s25.8-12.9,25.8-28.2-9.15-28.5-26.1-28.5-25.5,13.2-25.5,28.35Z"/>
        <path class="cls-1" d="M286.54,118.89c-2.76,0-5-2.24-5-5v-43.65c0-15.38-7.43-17.35-13.9-17.35-16.14,0-18.55,15.38-18.55,24.55v36.45c0,2.76-2.24,5-5,5h-14.25c-2.76,0-5-2.24-5-5v-56.7c0-6.3,0-13.43-.15-19.07-.04-1.35.48-2.65,1.42-3.62.94-.97,2.23-1.51,3.58-1.51h13.8c2.54,0,4.67,1.9,4.97,4.42.03.28.06.59.1.92,5.04-4.08,12.4-7.44,22.99-7.44,21.22,0,34.4,14.1,34.4,36.8v46.2c0,2.76-2.24,5-5,5h-14.4Z"/>
        <path class="cls-1" d="M229.85,57.19c0-6.45,0-13.5-.15-19.2h13.8c.3,2.55.6,8.85.6,14.1,3.3-7.35,11.25-16.2,27.45-16.2,17.85,0,29.4,10.95,29.4,31.8v46.2h-14.4v-43.65c0-12.45-4.65-22.35-18.9-22.35-15.75,0-23.55,12-23.55,29.55v36.45h-14.25v-56.7Z"/>
        <path class="cls-1" d="M317.9,118.89c-2.76,0-5-2.24-5-5v-10.65c0-1.31.51-2.57,1.43-3.5l44.31-45.2h-37.89c-2.76,0-5-2.24-5-5v-11.55c0-2.76,2.24-5,5-5h68.1c2.76,0,5,2.24,5,5v10.95c0,1.31-.51,2.56-1.42,3.5l-43.74,44.75h43.62c1.49,0,2.91.67,3.85,1.82.95,1.15,1.34,2.66,1.06,4.13l-2.25,11.7c-.45,2.35-2.51,4.06-4.91,4.06h-72.15Z"/>
        <path class="cls-1" d="M317.9,103.24l52.65-53.7h-49.8v-11.55h68.1v10.95l-52.05,53.25h55.5l-2.25,11.7h-72.15v-10.65Z"/>
        <path class="cls-1" d="M407.49,118.89c-2.76,0-5-2.24-5-5v-10.65c0-1.31.51-2.57,1.43-3.5l44.31-45.2h-37.89c-2.76,0-5-2.24-5-5v-11.55c0-2.76,2.24-5,5-5h68.1c2.76,0,5,2.24,5,5v10.95c0,1.31-.51,2.56-1.42,3.5l-43.74,44.75h43.62c1.49,0,2.91.67,3.85,1.82.95,1.15,1.34,2.66,1.06,4.13l-2.25,11.7c-.45,2.35-2.51,4.06-4.91,4.06h-72.15Z"/>
        <path class="cls-1" d="M407.49,103.24l52.65-53.7h-49.8v-11.55h68.1v10.95l-52.05,53.25h55.5l-2.25,11.7h-72.15v-10.65Z"/>
      </g>
      <circle class="cls-1" cx="508.93" cy="108.33" r="10.56"/>
      <path class="cls-1" d="M915.71,13.68c-.29-1.54-.87-3.03-1.73-4.34-2.91-4.45-8.33-6.83-13.65-7.09-5.32-.26-10.56,1.35-15.44,3.47-4.88,2.12-9.53,4.76-14.47,6.74-5.45,2.19-11.97,3.47-16.96.37,2.66,4.33,8.85,5.11,13.68,3.54,4.83-1.57,8.88-4.89,13.36-7.27,8.33-4.43,18.59-5.51,27.33-1.98,3.68,1.48,7.37,4.13,7.01,8.73-.18,2.34-1.49,4.44-3.35,5.87-4.01,3.06-9.19,2.87-13.92,1.95-3.98-.78-7.91-2.03-11.96-2.15-5.34-.15-11.1,1.91-12.56,8.5-.55,2.47-.33,5.09.64,7.43,2.4,5.78,8.27,9.16,14.26,10.34-.27-.05-9.89,17.66-10.99,19.31-4.29,6.42-9.06,12.52-14.26,18.23-9.92,10.88-23.79,18.8-38.69,19.85-4.04.28-8.11.02-12.07-.87-1.42-.32-2.74-1.07-3.55-2.27-2.05-3.01.24-5.82,2.33-7.96,5.55-5.7,11.15-11.35,16.8-16.95,4.34-4.31,9.16-8.82,15.23-9.57,3-.37,6.04.23,9.04-.11,4.8-.53,9.24-3.6,11.43-7.9-5.36.91-10.81,1.23-16.24.95l20.04-17.87-19.58,1.27c4.63,1.32,4.82,8.48,1.41,11.88-3.41,3.4-8.56,4.13-13.28,5.08-4.72.95-9.9,2.7-12.04,7.02l12.32-.69c-11.77,12.37-24.65,23.68-38.43,33.75-3.87,2.83-8.19,5.69-13.23,4.55-2.39-.54-4.43-2.26-5.02-4.64-.93-3.71,1.83-6.26,4.37-8.39l28.37-23.88c1.61-1.36,2.33-3.59,1.59-5.57-1.07-2.87-4.16-2.78-6.71-2.49-9.14,1.03-18.28,2.06-27.43,3.09,2.4-1.72,4.99-3.72,5.55-6.62.57-2.9-2.5-6.34-5.09-4.92,1.43,5.78-2.64,11.37-6.62,15.8-15.15,16.82-32.93,31.26-52.5,42.64-3-5.08.63-11.37,4.14-16.11,8.1-10.96,17.04-22.55,30.02-26.72l-6.23.11c15.73-15.14,30.38-31.39,43.83-48.59,1.6-2.05,2.07-4.84,1-7.2-2.54-5.64-10.19-2.78-14.82.59-21.06,15.34-41.62,31.36-61.64,48.04-1.75,1.46-3.54,2.95-5.69,3.71-3.7,1.31-7.76.26-11.68.18-7.05-.15-14.09,3.1-18.56,8.55,7.49-.97,14.98-1.95,22.47-2.92-42.69,31.23-95.91,53.1-147.99,43.83-9.12-1.62-20.22-6.64-17.61-17.18.36-1.45.99-2.83,1.78-4.1,4.66-7.43,10.74-13.95,17.82-19.13,2.01-1.47,4.16-2.86,6.59-3.44,3.7-.88,7.53.22,11.24,1.01,12.15,2.6,24.99,1.91,36.79-1.98-14.99,2.89-30.6,2.52-45.43-1.09,20.51-13.09,46.64-17.04,70.1-10.58,4.56,1.26,9.16,2.97,12.61,6.21,3.44,3.25,5.5,8.34,4.01,12.83-1.14,3.45-3.93,6.21-7.05,8.07-8.94,5.32-33.37,12.5-42.99,14.06-8.42,1.37-82.09,9.95-86.53,2.68l-7.93,17.53c6.69.75,78.33-11.61,85.32-13.73,8.14-2.46,53.25-12.32,68.23-32.18,2.17-2.88,3.85-6.16,3.83-9.76-.07-9.41-9.67-12.62-17.78-13.68-24.15-3.15-49.19.91-71.11,11.54-3.97,1.93-8.03,4.11-12.44,4.17-10.92.15-17.81-13.7-14.33-24.05,3.48-10.35,13.6-16.99,23.74-21.05,27.3-10.92,57.97-8.64,87.05-4.31,30.41,4.53,63.34,10.74,90.47-3.73-10.67,4.03-22.16,5.9-33.56,5.44-20.41-.81-39.74-8.87-59.64-13.5-28.22-6.57-59.1-5.91-84.73,7.6-10.97,5.78-21.24,14.52-24.73,26.42-3.49,11.89,2.33,26.93,14.31,30.13-1.39-.37-6.29,3.78-7.46,4.62-2.61,1.86-5.08,3.92-7.39,6.14-4.63,4.44-8.63,9.53-11.83,15.08-6.25,10.84-6.86,23.96,4.28,32.06,6.94,5.05,15.86,6.47,24.43,6.75,44.82,1.5,85.91-23.48,122.33-49.65,5.58-4.01,11.2-8.11,17.56-10.72,12.32-5.05,26.16-4.05,39.43-2.97-19.04,23.54-45.61,40.88-74.82,48.83,14.81.27,29.62.54,44.43.8,6.4.12,13.84-.25,17.63-5.42-3,.03-6.01-.54-8.8-1.66,18.07-12.07,34.87-26.04,50.02-41.62-1.15,1.37-1.46,3.4-.77,5.05l29.86-3.23c-11.58,10.97-23.15,21.93-34.73,32.9-2.37,2.24-4.84,4.64-5.27,8.04-.21,1.69.26,3.44,1.49,4.62,2.02,1.95,4.72,1.31,7.08.54,11.23-3.65,21.67-9.7,30.42-17.62-2.69,2.58-5.47,5.28-6.37,9-.33,1.35-.32,2.78.07,4.12,1.18,4.07,4.57,4.74,7.71,4.91,12.61.69,24.72-4.96,35.33-11.81,11.44-7.39,21.75-16.48,30.71-26.73,4.49-5.13,8.64-10.56,12.43-16.23,1.83-2.73,3.57-5.53,5.22-8.37,1.11-1.9,4.05-6.53,4.65-7.02,4.52,1.18,10.04,2.09,14.1-.84,2.05-1.48,3.26-3.97,2.81-6.46-.86-4.75-6.71-5.61-10.41-3.47-3.23,1.86-6.28,4.87-8.12,8.11-4.41-1.09-7.88-2.07-11.2-5.17-3.33-3.1-5.04-8.38-2.77-12.32,1.5-2.6,4.44-4.13,7.41-4.61,5.03-.81,10.06,1.02,15.04,2.12,4.98,1.11,10.75,1.31,14.57-2.06,2.82-2.49,3.79-6.52,3.08-10.24ZM712.08,65.9l1.48-1.05c13.36-10.2,25.74-20.04,36.38-28.48,6.68-5.27,10.89-6.33,16.58-6.33,4.45,0,7.67,2.46,7.67,5.98,0,1.58-.74,3.52-2.47,5.45-7.43,8.09-16.33,17.23-25.24,26.37-18.07-.18-28.21-1.05-34.4-1.93ZM902.85,38.09s.04,0,.06,0c1.04.02,1.9.66,2.63,1.97,1.04,1.86,1.15,3.34.33,4.54-1.72,2.52-7.19,3.31-10.33,2.88-1.03-.14-2.09-.32-3.16-.54,3.64-4.79,7.56-8.85,10.46-8.85Z"/>
    </g>
  </g>
</svg>